<svg xmlns="http://www.w3.org/2000/svg"  viewBox="0 0 16 16" width="32px" height="32px"><path d="M 2.296875 2 C 2.052875 2 1.9117344 2.2756094 2.0527344 2.4746094 L 6.4882812 8.7050781 L 2.0136719 14 L 3.3457031 14 L 7.09375 9.5527344 L 9.9609375 13.580078 C 10.148938 13.844078 10.452391 14 10.775391 14 L 13.703125 14 C 13.947125 14 14.088266 13.724391 13.947266 13.525391 L 9.2753906 6.9628906 L 13.457031 2 L 12.154297 2 L 8.6738281 6.1191406 L 6.0390625 2.4199219 C 5.8510625 2.1559219 5.5476094 2 5.2246094 2 L 2.296875 2 z M 3.6542969 3 L 5.2246094 3 L 12.345703 13 L 10.775391 13 L 3.6542969 3 z"/></svg>